  0
SECTION
  2
HEADER
  9
$ACADVER
  1
AC1009
  9
$DWGCODEPAGE
  3
ansi_1251
  9
$INSBASE
 10
0.0
 20
0.0
 30
0.0
  9
$EXTMIN
 10
0.0
 20
0.0
 30
0.0
  9
$EXTMAX
 10
200.0
 20
100.0
 30
0.0
  9
$LIMMIN
 10
0.0
 20
0.0
  9
$LIMMAX
 10
420.0
 20
297.0
  9
$ORTHOMODE
 70
     0
  9
$REGENMODE
 70
     1
  9
$FILLMODE
 70
     1
  9
$QTEXTMODE
 70
     0
  9
$MIRRTEXT
 70
     0
  9
$DRAGMODE
 70
     2
  9
$LTSCALE
 40
1.0
  9
$OSMODE
 70
    37
  9
$ATTMODE
 70
     1
  9
$TEXTSIZE
 40
2.5
  9
$TRACEWID
 40
1.0
  9
$TEXTSTYLE
  7
STANDARD
  9
$CLAYER
  8
DIMENSION
  9
$CELTYPE
  6
BYLAYER
  9
$CECOLOR
 62
   256
  9
$DIMSCALE
 40
1.0
  9
$DIMASZ
 40
2.5
  9
$DIMEXO
 40
0.5
  9
$DIMDLI
 40
6.0
  9
$DIMRND
 40
0.0
  9
$DIMDLE
 40
0.0
  9
$DIMEXE
 40
0.0
  9
$DIMTP
 40
0.0
  9
$DIMTM
 40
0.0
  9
$DIMTXT
 40
2.5
  9
$DIMCEN
 40
2.5
  9
$DIMTSZ
 40
0.0
  9
$DIMTOL
 70
     0
  9
$DIMLIM
 70
     0
  9
$DIMTIH
 70
     0
  9
$DIMTOH
 70
     1
  9
$DIMSE1
 70
     0
  9
$DIMSE2
 70
     0
  9
$DIMTAD
 70
     0
  9
$DIMZIN
 70
     0
  9
$DIMBLK
  1

  9
$DIMASO
 70
     1
  9
$DIMSHO
 70
     1
  9
$DIMPOST
  1

  9
$DIMAPOST
  1

  9
$DIMALT
 70
     0
  9
$DIMALTD
 70
     2
  9
$DIMALTF
 40
25.4
  9
$DIMLFAC
 40
1.0
  9
$DIMTOFL
 70
     0
  9
$DIMTVP
 40
0.0
  9
$DIMTIX
 70
     0
  9
$DIMSOXD
 70
     0
  9
$DIMSAH
 70
     0
  9
$DIMBLK1
  1

  9
$DIMBLK2
  1

  9
$DIMSTYLE
  2
STANDARD
  9
$DIMCLRD
 70
     0
  9
$DIMCLRE
 70
     0
  9
$DIMCLRT
 70
     0
  9
$DIMTFAC
 40
1.0
  9
$DIMGAP
 40
1.0
  9
$LUNITS
 70
     2
  9
$LUPREC
 70
     4
  9
$SKETCHINC
 40
1.0
  9
$FILLETRAD
 40
0.0
  9
$AUNITS
 70
     0
  9
$AUPREC
 70
     0
  9
$MENU
  1
.
  9
$ELEVATION
 40
0.0
  9
$PELEVATION
 40
0.0
  9
$THICKNESS
 40
0.0
  9
$LIMCHECK
 70
     0
  9
$CHAMFERA
 40
0.0
  9
$CHAMFERB
 40
0.0
  9
$SKPOLY
 70
     0
  9
$TDCREATE
 40
2454083.200050046
  9
$TDUPDATE
 40
2459121.030108634
  9
$TDINDWG
 40
0.0105753588
  9
$TDUSRTIMER
 40
0.0105751736
  9
$USRTIMER
 70
     1
  9
$ANGBASE
 50
0.0
  9
$ANGDIR
 70
     0
  9
$PDMODE
 70
     0
  9
$PDSIZE
 40
0.0
  9
$PLINEWID
 40
0.0
  9
$COORDS
 70
     1
  9
$SPLFRAME
 70
     0
  9
$SPLINETYPE
 70
     6
  9
$SPLINESEGS
 70
     8
  9
$ATTDIA
 70
     0
  9
$ATTREQ
 70
     1
  9
$HANDLING
 70
     1
  9
$HANDSEED
  5
51F
  9
$SURFTAB1
 70
     6
  9
$SURFTAB2
 70
     6
  9
$SURFTYPE
 70
     6
  9
$SURFU
 70
     6
  9
$SURFV
 70
     6
  9
$UCSNAME
  2

  9
$UCSORG
 10
0.0
 20
0.0
 30
0.0
  9
$UCSXDIR
 10
1.0
 20
0.0
 30
0.0
  9
$UCSYDIR
 10
0.0
 20
1.0
 30
0.0
  9
$PUCSNAME
  2

  9
$PUCSORG
 10
0.0
 20
0.0
 30
0.0
  9
$PUCSXDIR
 10
1.0
 20
0.0
 30
0.0
  9
$PUCSYDIR
 10
0.0
 20
1.0
 30
0.0
  9
$USERI1
 70
     0
  9
$USERI2
 70
     0
  9
$USERI3
 70
     0
  9
$USERI4
 70
     0
  9
$USERI5
 70
     0
  9
$USERR1
 40
0.0
  9
$USERR2
 40
0.0
  9
$USERR3
 40
0.0
  9
$USERR4
 40
0.0
  9
$USERR5
 40
0.0
  9
$WORLDVIEW
 70
     1
  9
$SHADEDGE
 70
     3
  9
$SHADEDIF
 70
    70
  9
$TILEMODE
 70
     1
  9
$MAXACTVP
 70
    64
  9
$PLIMCHECK
 70
     0
  9
$PEXTMIN
 10
0.0
 20
0.0
 30
0.0
  9
$PEXTMAX
 10
0.0
 20
0.0
 30
0.0
  9
$PLIMMIN
 10
-20.0
 20
-7.5
  9
$PLIMMAX
 10
277.0
 20
202.5
  9
$UNITMODE
 70
     0
  9
$VISRETAIN
 70
     1
  9
$PLINEGEN
 70
     0
  9
$PSLTSCALE
 70
     0
  0
ENDSEC
  0
SECTION
  2
TABLES
  0
TABLE
  2
VPORT
 70
     1
  0
VPORT
  2
*ACTIVE
 70
     0
 10
0.0
 20
0.0
 11
1.0
 21
1.0
 12
-94.207941
 22
-83.607976
 13
0.0
 23
0.0
 14
10.0
 24
10.0
 15
10.0
 25
10.0
 16
0.0
 26
0.0
 36
1.0
 17
210.0
 27
148.5
 37
0.0
 40
232.137931
 41
1.318182
 42
50.0
 43
0.0
 44
0.0
 50
0.0
 51
0.0
 71
    16
 72
  1000
 73
     1
 74
     3
 75
     0
 76
     0
 77
     0
 78
     0
  0
ENDTAB
  0
TABLE
  2
LTYPE
 70
     1
  0
LTYPE
  2
CONTINUOUS
 70
     0
  3
Solid line
 72
    65
 73
     0
 40
0.0
  0
ENDTAB
  0
TABLE
  2
LAYER
 70
     3
  0
LAYER
  2
0
 70
     0
 62
     7
  6
CONTINUOUS
  0
LAYER
  2
DEFPOINTS
 70
     0
 62
     7
  6
CONTINUOUS
  0
LAYER
  2
DIMENSION
 70
     0
 62
     6
  6
CONTINUOUS
  0
ENDTAB
  0
TABLE
  2
STYLE
 70
     2
  0
STYLE
  2
STANDARD
 70
     0
 40
0.0
 41
1.0
 50
0.0
 71
     0
 42
2.5
  3
txt.shx
  4

  0
STYLE
  2

 70
     1
 40
0.0
 41
1.0
 50
0.0
 71
     0
 42
0.2
  3
GOST 2.303-68.shx
  4

  0
ENDTAB
  0
TABLE
  2
VIEW
 70
     0
  0
ENDTAB
  0
TABLE
  2
UCS
 70
     0
  0
ENDTAB
  0
TABLE
  2
APPID
 70
    15
  0
APPID
  2
ACAD
 70
     0
  0
APPID
  2
ACAD_PSEXT
 70
     0
  0
APPID
  2
ACADANNOPO
 70
     0
  0
APPID
  2
ACADANNOTATIVE
 70
     0
  0
APPID
  2
ACAD_DSTYLE_DIMJAG
 70
     0
  0
APPID
  2
ACAD_DSTYLE_DIMTALN
 70
     0
  0
APPID
  2
ACAD_MLEADERVER
 70
     0
  0
APPID
  2
MCS_DIM1
 70
     0
  0
APPID
  2
MCSXDATA5
 70
     0
  0
APPID
  2
MCS_PARAMS_DATA
 70
     0
  0
APPID
  2
MCS_PARAMS_HIDDEN_DATA
 70
     0
  0
APPID
  2
MCS_DOCUMENT_ID
 70
     0
  0
APPID
  2
MCSUBENTIDENTIFICATION
 70
     0
  0
APPID
  2
MC_VERSION_DATA
 70
     0
  0
APPID
  2
ACAD_DSTYLE_DIMRADIAL_EXTE
 70
     0
  0
ENDTAB
  0
TABLE
  2
DIMSTYLE
 70
     1
  0
DIMSTYLE
  2
STANDARD
 70
     0
  3

  4

  5

  6

  7

 40
100.0
 41
2.5
 42
0.5
 43
6.0
 44
0.0
 45
0.0
 46
0.0
 47
0.0
 48
0.0
140
3.5
141
2.5
142
0.0
143
25.4
144
1.0
145
0.0
146
1.0
147
1.0
 71
     0
 72
     0
 73
     0
 74
     1
 75
     0
 76
     0
 77
     0
 78
     0
170
     0
171
     2
172
     0
173
     0
174
     0
175
     0
176
     0
177
     0
178
     0
  0
ENDTAB
  0
ENDSEC
  0
SECTION
  2
BLOCKS
  0
BLOCK
  8
0
  2
$MODEL_SPACE
 70
     0
 10
0.0
 20
0.0
 30
0.0
  3
$MODEL_SPACE
  1

  0
ENDBLK
  5
21
  8
0
  0
BLOCK
 67
     1
  8
0
  2
$PAPER_SPACE
 70
     0
 10
0.0
 20
0.0
 30
0.0
  3
$PAPER_SPACE
  1

  0
ENDBLK
  5
D9
 67
     1
  8
0
  0
BLOCK
  8
0
  2
_ARCHTICK
 70
     0
 10
0.0
 20
0.0
 30
0.0
  3
_ARCHTICK
  1

  0
POLYLINE
  5
1EF
  8
0
  6
BYBLOCK
 62
     0
 66
     1
 10
0.0
 20
0.0
 30
0.0
 40
0.15
 41
0.15
  0
VERTEX
  5
1F0
  8
0
  6
BYBLOCK
 62
     0
 10
-0.5
 20
-0.5
 30
0.0
  0
VERTEX
  5
1F1
  8
0
  6
BYBLOCK
 62
     0
 10
0.5
 20
0.5
 30
0.0
  0
SEQEND
  5
1F2
  8
0
  6
BYBLOCK
 62
     0
  0
ENDBLK
  5
1EE
  8
0
  0
BLOCK
  8
0
  2
_OPEN30
 70
     0
 10
0.0
 20
0.0
 30
0.0
  3
_OPEN30
  1

  0
LINE
  5
1F7
  8
0
  6
BYBLOCK
 62
     0
 10
-1.0
 20
0.267949
 30
0.0
 11
0.0
 21
0.0
 31
0.0
  0
LINE
  5
1F8
  8
0
  6
BYBLOCK
 62
     0
 10
0.0
 20
0.0
 30
0.0
 11
-1.0
 21
-0.267949
 31
0.0
  0
LINE
  5
1F9
  8
0
  6
BYBLOCK
 62
     0
 10
0.0
 20
0.0
 30
0.0
 11
-1.0
 21
0.0
 31
0.0
  0
ENDBLK
  5
1F6
  8
0
  0
BLOCK
  8
0
  2
_DOT
 70
     0
 10
0.0
 20
0.0
 30
0.0
  3
_DOT
  1

  0
POLYLINE
  5
1FF
  8
0
  6
BYBLOCK
 62
     0
 66
     1
 10
0.0
 20
0.0
 30
0.0
 70
     1
 40
0.5
 41
0.5
  0
VERTEX
  5
201
  8
0
  6
BYBLOCK
 62
     0
 10
-0.25
 20
0.0
 30
0.0
 42
1.0
  0
VERTEX
  5
202
  8
0
  6
BYBLOCK
 62
     0
 10
0.25
 20
0.0
 30
0.0
 42
1.0
  0
SEQEND
  5
203
  8
0
  6
BYBLOCK
 62
     0
  0
LINE
  5
200
  8
0
  6
BYBLOCK
 62
     0
 10
-0.5
 20
0.0
 30
0.0
 11
-1.0
 21
0.0
 31
0.0
  0
ENDBLK
  5
1FE
  8
0
  0
BLOCK
  8
0
  2
*D9
 70
     1
 10
0.0
 20
0.0
 30
0.0
  3
*D9
  1

  0
LINE
  5
377
  8
DIMENSION
 62
     0
 10
0.0
 20
-0.5
 30
0.0
 11
0.0
 21
-20.0
 31
0.0
  0
LINE
  5
378
  8
DIMENSION
 62
     0
 10
200.0
 20
-0.5
 30
0.0
 11
200.0
 21
-20.0
 31
0.0
  0
LINE
  5
379
  8
DIMENSION
 62
     0
 10
2.5
 20
-20.0
 30
0.0
 11
92.875
 21
-20.0
 31
0.0
  0
LINE
  5
37A
  8
DIMENSION
 62
     0
 10
197.5
 20
-20.0
 30
0.0
 11
107.125
 21
-20.0
 31
0.0
  0
SOLID
  5
37B
  8
DIMENSION
 62
     0
 10
2.5
 20
-19.583333
 30
0.0
 11
2.5
 21
-20.416667
 31
0.0
 12
0.0
 22
-20.0
 32
0.0
 13
0.0
 23
-20.0
 33
0.0
  0
SOLID
  5
37C
  8
DIMENSION
 62
     0
 10
197.5
 20
-20.416667
 30
0.0
 11
197.5
 21
-19.583333
 31
0.0
 12
200.0
 22
-20.0
 32
0.0
 13
200.0
 23
-20.0
 33
0.0
  0
TEXT
  5
37D
  8
DIMENSION
  6
CONTINUOUS
 62
     0
 10
93.875
 20
-21.75
 30
0.0
 40
3.5
  1
200.0
  0
POINT
  5
37E
  8
DEFPOINTS
 62
     0
 10
0.0
 20
0.0
 30
0.0
  0
POINT
  5
37F
  8
DEFPOINTS
 62
     0
 10
200.0
 20
0.0
 30
0.0
  0
POINT
  5
380
  8
DEFPOINTS
 62
     0
 10
200.0
 20
-20.0
 30
0.0
  0
ENDBLK
  5
376
  8
0
  0
BLOCK
  8
0
  2
*D10
 70
     1
 10
0.0
 20
0.0
 30
0.0
  3
*D10
  1

  0
LINE
  5
388
  8
DIMENSION
 62
     0
 10
130.358412
 20
-15.386102
 30
0.0
 11
130.358412
 21
-10.886102
 31
0.0
  0
LINE
  5
389
  8
DIMENSION
 62
     0
 10
140.358412
 20
-15.386102
 30
0.0
 11
140.358412
 21
-10.886102
 31
0.0
  0
LINE
  5
38A
  8
DIMENSION
 62
     0
 10
140.358412
 20
-10.886102
 30
0.0
 11
142.858412
 21
-10.886102
 31
0.0
  0
LINE
  5
38B
  8
DIMENSION
 62
     0
 10
132.858412
 20
-10.886102
 30
0.0
 11
137.858412
 21
-10.886102
 31
0.0
  0
SOLID
  5
38C
  8
DIMENSION
 62
     0
 10
132.858412
 20
-10.469436
 30
0.0
 11
132.858412
 21
-11.302769
 31
0.0
 12
130.358412
 22
-10.886102
 32
0.0
 13
130.358412
 23
-10.886102
 33
0.0
  0
SOLID
  5
38D
  8
DIMENSION
 62
     0
 10
137.858412
 20
-11.302769
 30
0.0
 11
137.858412
 21
-10.469436
 31
0.0
 12
140.358412
 22
-10.886102
 32
0.0
 13
140.358412
 23
-10.886102
 33
0.0
  0
TEXT
  5
38E
  8
DIMENSION
  6
CONTINUOUS
 62
     0
 10
143.858412
 20
-12.136102
 30
0.0
 40
2.5
  1
10.0000
  0
POINT
  5
38F
  8
DEFPOINTS
 62
     0
 10
130.358412
 20
-15.886102
 30
0.0
  0
POINT
  5
390
  8
DEFPOINTS
 62
     0
 10
140.358412
 20
-15.886102
 30
0.0
  0
POINT
  5
391
  8
DEFPOINTS
 62
     0
 10
140.358412
 20
-10.886102
 30
0.0
  0
ENDBLK
  5
387
  8
0
  0
BLOCK
  8
0
  2
*D11
 70
     1
 10
0.0
 20
0.0
 30
0.0
  3
*D11
  1

  0
LINE
  5
39C
  8
DIMENSION
 62
     0
 10
150.5
 20
75.0
 30
0.0
 11
228.0
 21
75.0
 31
0.0
  0
LINE
  5
39D
  8
DIMENSION
 62
     0
 10
200.5
 20
-0.5
 30
0.0
 11
228.0
 21
-0.5
 31
0.0
  0
LINE
  5
39E
  8
DIMENSION
 62
     0
 10
228.0
 20
72.5
 30
0.0
 11
228.0
 21
43.5
 31
0.0
  0
LINE
  5
39F
  8
DIMENSION
 62
     0
 10
228.0
 20
2.0
 30
0.0
 11
228.0
 21
31.0
 31
0.0
  0
SOLID
  5
3A0
  8
DIMENSION
 62
     0
 10
228.416667
 20
72.5
 30
0.0
 11
227.583333
 21
72.5
 31
0.0
 12
228.0
 22
75.0
 32
0.0
 13
228.0
 23
75.0
 33
0.0
  0
SOLID
  5
3A1
  8
DIMENSION
 62
     0
 10
227.583333
 20
2.0
 30
0.0
 11
228.416667
 21
2.0
 31
0.0
 12
228.0
 22
-0.5
 32
0.0
 13
228.0
 23
-0.5
 33
0.0
  0
TEXT
  5
3A2
  8
DIMENSION
  6
CONTINUOUS
 62
     0
 10
229.75
 20
32.0
 30
0.0
 40
3.5
  1
75.5
 50
90.0
  0
POINT
  5
3A3
  8
DEFPOINTS
 62
     0
 10
150.0
 20
75.0
 30
0.0
  0
POINT
  5
3A4
  8
DEFPOINTS
 62
     0
 10
200.0
 20
-0.5
 30
0.0
  0
POINT
  5
3A5
  8
DEFPOINTS
 62
     0
 10
228.0
 20
-0.5
 30
0.0
  0
ENDBLK
  5
39B
  8
0
  0
BLOCK
  8
0
  2
*D12
 70
     1
 10
0.0
 20
0.0
 30
0.0
  3
*D12
  1

  0
LINE
  5
3AD
  8
DIMENSION
 62
     0
 10
208.433124
 20
28.985371
 30
0.0
 11
214.933124
 21
28.985371
 31
0.0
  0
LINE
  5
3AE
  8
DIMENSION
 62
     0
 10
208.433124
 20
38.985371
 30
0.0
 11
214.933124
 21
38.985371
 31
0.0
  0
LINE
  5
3AF
  8
DIMENSION
 62
     0
 10
214.933124
 20
41.485371
 30
0.0
 11
217.433124
 21
41.485371
 31
0.0
  0
LINE
  5
3B0
  8
DIMENSION
 62
     0
 10
214.933124
 20
31.485371
 30
0.0
 11
214.933124
 21
36.485371
 31
0.0
  0
LINE
  5
3B1
  8
DIMENSION
 62
     0
 10
214.933124
 20
38.985371
 30
0.0
 11
214.933124
 21
41.485371
 31
0.0
  0
SOLID
  5
3B2
  8
DIMENSION
 62
     0
 10
214.516458
 20
31.485371
 30
0.0
 11
215.349791
 21
31.485371
 31
0.0
 12
214.933124
 22
28.985371
 32
0.0
 13
214.933124
 23
28.985371
 33
0.0
  0
SOLID
  5
3B3
  8
DIMENSION
 62
     0
 10
215.349791
 20
36.485371
 30
0.0
 11
214.516458
 21
36.485371
 31
0.0
 12
214.933124
 22
38.985371
 32
0.0
 13
214.933124
 23
38.985371
 33
0.0
  0
TEXT
  5
3B4
  8
DIMENSION
  6
CONTINUOUS
 62
     0
 10
218.433124
 20
39.735371
 30
0.0
 40
3.5
  1
10
  0
POINT
  5
3B5
  8
DEFPOINTS
 62
     0
 10
207.933124
 20
28.985371
 30
0.0
  0
POINT
  5
3B6
  8
DEFPOINTS
 62
     0
 10
207.933124
 20
38.985371
 30
0.0
  0
POINT
  5
3B9
  8
DEFPOINTS
 62
     0
 10
214.933124
 20
38.985371
 30
0.0
  0
ENDBLK
  5
3AC
  8
0
  0
BLOCK
  8
0
  2
*D13
 70
     1
 10
0.0
 20
0.0
 30
0.0
  3
*D13
  1

  0
LINE
  5
3BE
  8
DIMENSION
 62
     0
 10
-0.5
 20
50.0
 30
0.0
 11
-21.0
 21
50.0
 31
0.0
  0
LINE
  5
3BF
  8
DIMENSION
 62
     0
 10
-0.5
 20
0.0
 30
0.0
 11
-21.0
 21
0.0
 31
0.0
  0
LINE
  5
3C0
  8
DIMENSION
 62
     0
 10
-21.0
 20
47.5
 30
0.0
 11
-21.0
 21
30.666667
 31
0.0
  0
LINE
  5
3C1
  8
DIMENSION
 62
     0
 10
-21.0
 20
2.5
 30
0.0
 11
-21.0
 21
19.333333
 31
0.0
  0
SOLID
  5
3C2
  8
DIMENSION
 62
     0
 10
-20.583333
 20
47.5
 30
0.0
 11
-21.416667
 21
47.5
 31
0.0
 12
-21.0
 22
50.0
 32
0.0
 13
-21.0
 23
50.0
 33
0.0
  0
SOLID
  5
3C3
  8
DIMENSION
 62
     0
 10
-21.416667
 20
2.5
 30
0.0
 11
-20.583333
 21
2.5
 31
0.0
 12
-21.0
 22
0.0
 32
0.0
 13
-21.0
 23
0.0
 33
0.0
  0
TEXT
  5
3C4
  8
DIMENSION
  6
CONTINUOUS
 62
     0
 10
-19.25
 20
20.333333
 30
0.0
 40
3.5
  1
50.0
 50
90.0
  0
POINT
  5
3C5
  8
DEFPOINTS
 62
     0
 10
0.0
 20
50.0
 30
0.0
  0
POINT
  5
3C6
  8
DEFPOINTS
 62
     0
 10
0.0
 20
0.0
 30
0.0
  0
POINT
  5
3C7
  8
DEFPOINTS
 62
     0
 10
-21.0
 20
0.0
 30
0.0
  0
ENDBLK
  5
3BD
  8
0
  0
BLOCK
  8
0
  2
*D14
 70
     1
 10
0.0
 20
0.0
 30
0.0
  3
*D14
  1

  0
LINE
  5
3CF
  8
DIMENSION
 62
     0
 10
40.245037
 20
109.242424
 30
0.0
 11
46.745037
 21
109.242424
 31
0.0
  0
LINE
  5
3D0
  8
DIMENSION
 62
     0
 10
40.245037
 20
119.242424
 30
0.0
 11
46.745037
 21
119.242424
 31
0.0
  0
LINE
  5
3D1
  8
DIMENSION
 62
     0
 10
46.745037
 20
121.742424
 30
0.0
 11
49.245037
 21
121.742424
 31
0.0
  0
LINE
  5
3D2
  8
DIMENSION
 62
     0
 10
46.745037
 20
111.742424
 30
0.0
 11
46.745037
 21
116.742424
 31
0.0
  0
LINE
  5
3D3
  8
DIMENSION
 62
     0
 10
46.745037
 20
119.242424
 30
0.0
 11
46.745037
 21
121.742424
 31
0.0
  0
SOLID
  5
3D4
  8
DIMENSION
 62
     0
 10
46.32837
 20
111.742424
 30
0.0
 11
47.161703
 21
111.742424
 31
0.0
 12
46.745037
 22
109.242424
 32
0.0
 13
46.745037
 23
109.242424
 33
0.0
  0
SOLID
  5
3D5
  8
DIMENSION
 62
     0
 10
47.161703
 20
116.742424
 30
0.0
 11
46.32837
 21
116.742424
 31
0.0
 12
46.745037
 22
119.242424
 32
0.0
 13
46.745037
 23
119.242424
 33
0.0
  0
TEXT
  5
3D6
  8
DIMENSION
  6
CONTINUOUS
 62
     0
 10
50.245037
 20
119.992424
 30
0.0
 40
3.5
  1
10
  0
POINT
  5
3D7
  8
DEFPOINTS
 62
     0
 10
39.745037
 20
109.242424
 30
0.0
  0
POINT
  5
3D8
  8
DEFPOINTS
 62
     0
 10
39.745037
 20
119.242424
 30
0.0
  0
POINT
  5
3DB
  8
DEFPOINTS
 62
     0
 10
46.745037
 20
119.242424
 30
0.0
  0
ENDBLK
  5
3CE
  8
0
  0
BLOCK
  8
0
  2
*D15
 70
     1
 10
0.0
 20
0.0
 30
0.0
  3
*D15
  1

  0
LINE
  5
3E1
  8
DIMENSION
 62
     0
 10
93.838835
 20
56.161165
 30
0.0
 11
92.071068
 21
57.928932
 31
0.0
  0
TEXT
  5
3E2
  8
DIMENSION
  6
CONTINUOUS
 62
     0
 10
84.764298
 20
62.760829
 30
0.0
 40
3.5
  1
R10
 50
315.0
  0
SOLID
  5
3E3
  8
DIMENSION
 62
     0
 10
93.544207
 20
55.866537
 30
0.0
 11
94.133463
 21
56.455793
 31
0.0
 12
95.606602
 22
54.393398
 32
0.0
 13
95.606602
 23
54.393398
 33
0.0
  0
POINT
  5
3E4
  8
DEFPOINTS
 62
     0
 10
95.606602
 20
54.393398
 30
0.0
  0
POINT
  5
3E5
  8
DEFPOINTS
 62
     0
 10
88.535534
 20
61.464466
 30
0.0
  0
ENDBLK
  5
3E0
  8
0
  0
BLOCK
  8
0
  2
_NONE
 70
     0
 10
0.0
 20
0.0
 30
0.0
  3
_NONE
  1

  0
ENDBLK
  5
3EB
  8
0
  0
BLOCK
  8
0
  2
*D17
 70
     1
 10
0.0
 20
0.0
 30
0.0
  3
*D17
  1

  0
LINE
  5
3F2
  8
DIMENSION
 62
     0
 10
162.324624
 20
93.824283
 30
0.0
 11
137.675376
 21
56.175717
 31
0.0
  0
INSERT
  5
3F3
  8
DIMENSION
 62
     0
  2
*X23
 10
0.0
 20
0.0
 30
0.0
  0
SOLID
  5
3F4
  8
DIMENSION
 62
     0
 10
137.326778
 20
56.403951
 30
0.0
 11
138.023974
 21
55.947483
 31
0.0
 12
136.305973
 22
54.08413
 32
0.0
 13
136.305973
 23
54.08413
 33
0.0
  0
SOLID
  5
3F5
  8
DIMENSION
 62
     0
 10
162.673222
 20
93.596049
 30
0.0
 11
161.976026
 21
94.052517
 31
0.0
 12
163.694027
 22
95.91587
 32
0.0
 13
163.694027
 23
95.91587
 33
0.0
  0
POINT
  5
3F6
  8
DEFPOINTS
 62
     0
 10
163.694027
 20
95.91587
 30
0.0
  0
POINT
  5
3F7
  8
DEFPOINTS
 62
     0
 10
136.305973
 20
54.08413
 30
0.0
  0
ENDBLK
  5
3F1
  8
0
  0
BLOCK
  8
0
  2
*D18
 70
     1
 10
0.0
 20
0.0
 30
0.0
  3
*D18
  1

  0
LINE
  5
448
  8
DIMENSION
 62
     0
 10
88.817395
 20
173.041539
 30
0.0
 11
85.281861
 21
176.577073
 31
0.0
  0
INSERT
  5
449
  8
DIMENSION
 62
     0
  2
*X24
 10
0.0
 20
0.0
 30
0.0
  0
SOLID
  5
44A
  8
DIMENSION
 62
     0
 10
85.576489
 20
176.871701
 30
0.0
 11
84.987233
 21
176.282445
 31
0.0
 12
83.514094
 22
178.34484
 32
0.0
 13
83.514094
 23
178.34484
 33
0.0
  0
SOLID
  5
44B
  8
DIMENSION
 62
     0
 10
88.522767
 20
172.746911
 30
0.0
 11
89.112023
 21
173.336167
 31
0.0
 12
90.585162
 22
171.273772
 32
0.0
 13
90.585162
 23
171.273772
 33
0.0
  0
POINT
  5
44C
  8
DEFPOINTS
 62
     0
 10
90.585162
 20
171.273772
 30
0.0
  0
POINT
  5
44D
  8
DEFPOINTS
 62
     0
 10
83.514094
 20
178.34484
 30
0.0
  0
ENDBLK
  5
447
  8
0
  0
BLOCK
  8
0
  2
*D19
 70
     1
 10
0.0
 20
0.0
 30
0.0
  3
*D19
  1

  0
LINE
  5
459
  8
DIMENSION
 62
     0
 10
106.994253
 20
37.180425
 30
0.0
 11
104.494253
 21
37.180425
 31
0.0
  0
LINE
  5
45A
  8
DIMENSION
 62
     0
 10
104.494253
 20
37.180425
 30
0.0
 11
95.042695
 21
50.668417
 31
0.0
  0
TEXT
  5
45B
  8
DIMENSION
  6
CONTINUOUS
 62
     0
 10
107.994253
 20
35.430425
 30
0.0
 40
3.5
  1
R15.0
  0
SOLID
  5
45C
  8
DIMENSION
 62
     0
 10
95.383923
 20
50.907529
 30
0.0
 11
94.701467
 21
50.429305
 31
0.0
 12
93.608024
 22
52.715786
 32
0.0
 13
93.608024
 23
52.715786
 33
0.0
  0
LINE
  5
45D
  8
DIMENSION
 62
     0
 10
82.5
 20
65.0
 30
0.0
 11
87.5
 21
65.0
 31
0.0
  0
LINE
  5
463
  8
DIMENSION
 62
     0
 10
85.0
 20
62.5
 30
0.0
 11
85.0
 21
67.5
 31
0.0
  0
POINT
  5
464
  8
DEFPOINTS
 62
     0
 10
93.608024
 20
52.715786
 30
0.0
  0
POINT
  5
465
  8
DEFPOINTS
 62
     0
 10
85.0
 20
65.0
 30
0.0
  0
ENDBLK
  5
458
  8
0
  0
BLOCK
  8
0
  2
*D20
 70
     1
 10
0.0
 20
0.0
 30
0.0
  3
*D20
  1

  0
LINE
  5
46A
  8
DIMENSION
 62
     0
 10
102.726486
 20
38.948192
 30
0.0
 11
100.958719
 21
40.715959
 31
0.0
  0
TEXT
  5
46B
  8
DIMENSION
  6
CONTINUOUS
 62
     0
 10
93.651949
 20
45.547855
 30
0.0
 40
3.5
  1
R10
 50
315.0
  0
SOLID
  5
46C
  8
DIMENSION
 62
     0
 10
102.431858
 20
38.653564
 30
0.0
 11
103.021114
 21
39.24282
 31
0.0
 12
104.494253
 22
37.180425
 32
0.0
 13
104.494253
 23
37.180425
 33
0.0
  0
POINT
  5
46D
  8
DEFPOINTS
 62
     0
 10
104.494253
 20
37.180425
 30
0.0
  0
POINT
  5
46E
  8
DEFPOINTS
 62
     0
 10
97.423185
 20
44.251493
 30
0.0
  0
ENDBLK
  5
469
  8
0
  0
BLOCK
  8
0
  2
*D21
 70
     1
 10
0.0
 20
0.0
 30
0.0
  3
*D21
  1

  0
LINE
  5
478
  8
DIMENSION
 62
     0
 10
108.335946
 20
129.801115
 30
0.0
 11
110.835946
 21
129.801115
 31
0.0
  0
LINE
  5
479
  8
DIMENSION
 62
     0
 10
110.835946
 20
129.801115
 30
0.0
 11
117.773062
 21
115.223146
 31
0.0
  0
TEXT
  5
47A
  8
DIMENSION
  6
CONTINUOUS
 62
     0
 10
93.335946
 20
128.051115
 30
0.0
 40
3.5
  1
R72.5
  0
SOLID
  5
47B
  8
DIMENSION
 62
     0
 10
117.396822
 20
115.044107
 30
0.0
 11
118.149301
 21
115.402184
 31
0.0
 12
118.847293
 22
112.965707
 32
0.0
 13
118.847293
 23
112.965707
 33
0.0
  0
LINE
  5
47C
  8
DIMENSION
 62
     0
 10
147.5
 20
47.5
 30
0.0
 11
152.5
 21
47.5
 31
0.0
  0
LINE
  5
482
  8
DIMENSION
 62
     0
 10
150.0
 20
45.0
 30
0.0
 11
150.0
 21
50.0
 31
0.0
  0
POINT
  5
483
  8
DEFPOINTS
 62
     0
 10
118.847293
 20
112.965707
 30
0.0
  0
POINT
  5
484
  8
DEFPOINTS
 62
     0
 10
150.0
 20
47.5
 30
0.0
  0
ENDBLK
  5
477
  8
0
  0
BLOCK
  8
0
  2
*D22
 70
     1
 10
0.0
 20
0.0
 30
0.0
  3
*D22
  1

  0
LINE
  5
489
  8
DIMENSION
 62
     0
 10
135.927113
 20
151.393333
 30
0.0
 11
134.159346
 21
153.1611
 31
0.0
  0
TEXT
  5
48A
  8
DIMENSION
  6
CONTINUOUS
 62
     0
 10
126.852576
 20
157.992996
 30
0.0
 40
3.5
  1
R10
 50
315.0
  0
SOLID
  5
48B
  8
DIMENSION
 62
     0
 10
135.632485
 20
151.098705
 30
0.0
 11
136.221741
 21
151.687961
 31
0.0
 12
137.69488
 22
149.625566
 32
0.0
 13
137.69488
 23
149.625566
 33
0.0
  0
POINT
  5
48C
  8
DEFPOINTS
 62
     0
 10
137.69488
 20
149.625566
 30
0.0
  0
POINT
  5
48D
  8
DEFPOINTS
 62
     0
 10
130.623812
 20
156.696634
 30
0.0
  0
ENDBLK
  5
488
  8
0
  0
BLOCK
  8
0
  2
*X23
 70
     1
 10
0.0
 20
0.0
 30
0.0
  3
*X23
  1

  0
TEXT
  5
516
  8
DIMENSION
  6
CONTINUOUS
 62
     0
 10
158.715116
 20
91.506045
 30
0.0
 40
3.5
  1
\U+00D8
 50
56.786451
  0
TEXT
  5
517
  8
DIMENSION
  6
CONTINUOUS
 62
     0
 10
160.63228
 20
94.434267
 30
0.0
 40
3.5
  1
50.0
 50
56.786451
  0
ENDBLK
  5
51C
  8
0
  0
BLOCK
  8
0
  2
*X24
 70
     1
 10
0.0
 20
0.0
 30
0.0
  3
*X24
  1

  0
TEXT
  5
519
  8
DIMENSION
  6
CONTINUOUS
 62
     0
 10
89.141486
 20
175.192322
 30
0.0
 40
3.5
  1
\U+00D8
 50
315.0
  0
TEXT
  5
51A
  8
DIMENSION
  6
CONTINUOUS
 62
     0
 10
91.616359
 20
172.717449
 30
0.0
 40
3.5
  1
10
 50
315.0
  0
ENDBLK
  5
51E
  8
0
  0
ENDSEC
  0
SECTION
  2
ENTITIES
  0
LINE
  5
367
  8
0
 10
0.0
 20
0.0
 30
0.0
 11
200.0
 21
0.0
 31
0.0
  0
LINE
  5
368
  8
0
 10
200.0
 20
0.0
 30
0.0
 11
200.0
 21
100.0
 31
0.0
  0
LINE
  5
36A
  8
0
 10
85.0
 20
50.0
 30
0.0
 11
0.0
 21
50.0
 31
0.0
  0
LINE
  5
36B
  8
0
 10
0.0
 20
50.0
 30
0.0
 11
0.0
 21
0.0
 31
0.0
  0
LINE
  5
36C
  8
0
 10
100.0
 20
65.0
 30
0.0
 11
100.0
 21
100.0
 31
0.0
  0
ARC
  5
370
  8
0
 10
150.0
 20
47.5
 30
0.0
 40
72.49999999999994
 50
46.397181
 51
133.602819
  0
CIRCLE
  5
371
  8
0
 10
150.0
 20
75.0
 30
0.0
 40
25.0
  0
ARC
  5
372
  8
0
 10
85.0
 20
65.0
 30
0.0
 40
14.99999999999993
 50
270.0
 51
0.0
1001
MCSXDATA5
1071
      165
1004
0600000000000000890000001C000000E404000000000000000000001F050A025C020509020FEE020C4D43535F46494C4C45545F3109020FEE020C4D43535F46494C4C45545F3209020FEE020C4D43535F46494C4C45545F3309020FEE020C4D43535F46494C4C45545F3409020FEE020C4D43535F46494C4C45545F351202
1004
2402050201030201030202020103020326020F0201030201220201030201220201030201221A
  0
DIMENSION
  5
373
  8
DIMENSION
  2
*D9
 10
200.0
 20
-20.0
 30
0.0
 11
100.0
 21
-20.0
 31
0.0
 70
    32
  3
STANDARD
 13
0.0
 23
0.0
 33
0.0
 14
200.0
 24
0.0
 34
0.0
1001
ACAD
1000
DSTYLE
1002
{
1070
     7
1000

1070
     6
1000

1070
     5
1000

1070
   340
1005
11
1070
   144
1040
1.0
1070
    40
1040
1.0
1070
   173
1070
     1
1070
   283
1070
     1
1002
}
  0
DIMENSION
  5
398
  8
DIMENSION
  2
*D11
 10
228.0
 20
-0.5
 30
0.0
 11
228.0
 21
37.25
 31
0.0
 70
    32
  3
STANDARD
 13
150.0
 23
75.0
 33
0.0
 14
200.0
 24
-0.5
 34
0.0
 50
90.0
1001
ACAD
1000
DSTYLE
1002
{
1070
     7
1000

1070
     6
1000

1070
     5
1000

1070
   340
1005
11
1070
   144
1040
1.0
1070
    40
1040
1.0
1070
   173
1070
     1
1070
   283
1070
     1
1002
}
  0
DIMENSION
  5
3BA
  8
DIMENSION
  2
*D13
 10
-21.0
 20
0.0
 30
0.0
 11
-21.0
 21
25.0
 31
0.0
 70
    32
  3
STANDARD
 13
0.0
 23
50.0
 33
0.0
 14
0.0
 24
0.0
 34
0.0
 50
90.0
1001
ACAD
1000
DSTYLE
1002
{
1070
     7
1000

1070
     6
1000

1070
     5
1000

1070
   340
1005
11
1070
   144
1040
1.0
1070
    40
1040
1.0
1070
   173
1070
     1
1070
   283
1070
     1
1002
}
  0
DIMENSION
  5
3EE
  8
DIMENSION
  2
*D17
 10
136.305973
 20
54.08413
 30
0.0
 11
160.765805
 21
97.833034
 31
0.0
 70
   163
  1
{\Q0;%%c}50.0
  3
STANDARD
 15
163.694027
 25
95.91587
 35
0.0
 40
0.0
1001
ACAD_DSTYLE_DIMRADIAL_EXTE
1070
   387
1070
     1
1070
   388
1040
0.0
1070
   390
1040
0.0
1001
ACAD
1000
DSTYLE
1002
{
1070
   287
1070
     5
1070
     7
1000

1070
     6
1000

1070
     5
1000

1070
    75
1070
     1
1070
    76
1070
     1
1070
   340
1005
11
1070
   279
1070
     2
1070
   144
1040
1.0
1070
    40
1040
1.0
1070
   173
1070
     1
1070
   283
1070
     1
1002
}
  0
DIMENSION
  5
455
  8
DIMENSION
  2
*D19
 10
85.0
 20
65.0
 30
0.0
 11
104.494253
 21
37.180425
 31
0.0
 70
   164
  3
STANDARD
 15
93.608024
 25
52.715786
 35
0.0
 40
0.0
1001
ACAD_DSTYLE_DIMRADIAL_EXTE
1070
   387
1070
     1
1070
   388
1040
4.712389
1070
   390
1040
0.0
1001
ACAD
1000
DSTYLE
1002
{
1070
   287
1070
     4
1070
     7
1000

1070
     6
1000
NONE
1070
     5
1000

1070
   279
1070
     1
1070
   340
1005
11
1070
   144
1040
1.0
1070
    40
1040
1.0
1070
    75
1070
     0
1070
   173
1070
     1
1070
   283
1070
     1
1002
}
  0
DIMENSION
  5
474
  8
DIMENSION
  2
*D21
 10
150.0
 20
47.5
 30
0.0
 11
110.835946
 21
129.801115
 31
0.0
 70
   164
  3
STANDARD
 15
118.847293
 25
112.965707
 35
0.0
 40
0.0
1001
ACAD_DSTYLE_DIMRADIAL_EXTE
1070
   387
1070
     1
1070
   388
1040
0.809784
1070
   390
1040
2.331809
1001
ACAD
1000
DSTYLE
1002
{
1070
   287
1070
     4
1070
     7
1000

1070
     6
1000
NONE
1070
     5
1000

1070
   279
1070
     1
1070
   340
1005
11
1070
   144
1040
1.0
1070
    40
1040
1.0
1070
    75
1070
     0
1070
   173
1070
     1
1070
   283
1070
     1
1002
}
  0
VIEWPORT
  5
20F
 67
     1
  8
0
 10
0.0
 20
0.0
 30
0.0
 40
466.965848
 41
238.196088
 68
     1
 69
     1
1001
ACAD
1000
MVIEW
1002
{
1070
    16
1010
0.0
1020
0.0
1030
0.0
1020
0.0
1030
0.0
1010
0.0
1020
0.0
1030
1.0
1020
0.0
1030
1.0
1040
0.0
1040
238.196088
1040
128.5
1040
97.5
1040
50.0
1040
0.0
1040
0.0
1070
    16
1070
   100
1070
     0
1070
     3
1070
     0
1070
     0
1070
     0
1070
     0
1040
0.0
1040
0.0
1040
0.0
1040
10.0
1040
10.0
1040
10.0
1040
10.0
1070
     0
1002
{
1002
}
1002
}
  0
ENDSEC
  0
EOF
